<svg width="61" height="61" viewBox="0 0 61 61" fill="none" xmlns="http://www.w3.org/2000/svg">
<circle cx="30.6389" cy="30.673" r="30.2289" fill="black"/>
<path d="M39.2653 30.4548C39.2248 26.2777 42.582 24.2742 42.7321 24.173C40.8453 21.3397 37.9058 20.951 36.8596 20.9067C34.36 20.646 31.9799 22.4189 30.7118 22.4189C29.4463 22.4189 27.4871 20.9449 25.4143 20.9825C22.6876 21.024 20.1743 22.6112 18.7711 25.1181C15.9393 30.1633 18.0467 37.6402 20.806 41.7349C22.1551 43.7364 23.7638 45.9885 25.8744 45.906C27.9087 45.8236 28.6762 44.5548 31.1353 44.5548C33.5945 44.5548 34.285 45.906 36.4367 45.8638C38.6244 45.8229 40.0112 43.8242 41.3491 41.8147C42.8978 39.4895 43.5355 37.238 43.5733 37.1241C43.5257 37.1013 39.309 35.4424 39.2653 30.4548Z" fill="white"/>
<path d="M35.2221 18.1968C36.3414 16.8013 37.0998 14.8622 36.8936 12.9318C35.2783 12.9988 33.323 14.0344 32.1632 15.4285C31.1242 16.6659 30.2158 18.6358 30.4592 20.5314C32.2611 20.6748 34.099 19.5896 35.2221 18.1968Z" fill="white"/>
</svg>
