<svg width="60" height="60" viewBox="0 0 60 60" fill="none" xmlns="http://www.w3.org/2000/svg">
<circle cx="30.218" cy="29.673" r="29.6641" fill="#8CDD28"/>
<g clip-path="url(#clip0_103_3)">
<path d="M39.9383 37.4952C39.8896 37.9081 39.5534 38.0359 39.2634 38.1981C36.5686 39.707 33.8739 41.1938 31.1869 42.7272C30.9281 42.9006 30.6199 42.9936 30.304 42.9936C29.9882 42.9936 29.68 42.9006 29.4212 42.7272C26.6135 41.1667 23.7751 39.6627 20.9521 38.1145C19.6688 37.4166 19.6919 37.161 20.9521 36.4434C21.7579 35.979 22.6279 35.5956 23.3619 35.0451C24.4218 34.2489 25.3971 34.3079 26.3569 35.0918C28.641 36.9448 30.884 37.0111 33.145 35.0623C34.2101 34.1457 35.2598 34.3079 36.3787 35.0623C37.2436 35.6521 38.2214 36.0945 39.1504 36.5983C39.3416 36.6844 39.5111 36.8092 39.6471 36.964C39.7831 37.1189 39.8824 37.3001 39.9383 37.4952Z" fill="black"/>
<path d="M39.9179 21.0915C39.8563 21.4454 39.5689 21.5634 39.3148 21.7059C36.5867 23.232 33.8509 24.7434 31.1357 26.2916C30.8953 26.4557 30.6082 26.5452 30.313 26.5478C30.0178 26.5505 29.7289 26.4662 29.4855 26.3063C26.6393 24.7286 23.7624 23.205 20.9137 21.6371C19.7254 20.9834 19.8589 20.8384 20.9137 19.9955C23.4801 17.946 25.9669 17.6658 28.5821 19.8775C29.2981 20.4821 30.1091 20.4329 30.9329 19.8923C31.7567 19.3516 32.7294 18.9339 33.5737 18.3883C34.3437 17.8968 35.0289 17.8722 35.8168 18.3465C36.8998 18.9978 38.0316 19.5753 39.1326 20.2044C39.5021 20.4084 39.8409 20.6639 39.9179 21.0915Z" fill="black"/>
<path d="M30.3323 34.9001C29.9936 34.7502 29.6779 34.6323 29.3853 34.4725C26.6341 32.9833 23.8804 31.4965 21.142 29.9852C19.7331 29.2061 19.7356 28.9211 21.0779 28.1494C21.4423 27.9381 21.876 27.8029 22.184 27.535C24.019 25.9328 25.8206 26.1367 27.6094 27.5842C29.0132 28.7171 30.4453 28.7957 31.8183 27.6014C33.8714 25.8222 35.6987 26.3161 37.8314 27.6432C40.9341 29.5772 40.5184 29.2332 37.7852 30.7961C35.6576 32.0101 33.5095 33.1946 31.3692 34.389C31.0407 34.5635 30.6942 34.7232 30.3323 34.9001Z" fill="black"/>
</g>
<defs>
<clipPath id="clip0_103_3">
<rect width="20" height="25" fill="white" transform="translate(20 18)"/>
</clipPath>
</defs>
</svg>
