<svg width="60" height="60" viewBox="0 0 60 60" fill="none" xmlns="http://www.w3.org/2000/svg">
<circle cx="29.7976" cy="29.673" r="29.6641" fill="#FF928E"/>
<g clip-path="url(#clip0_103_5)">
<path d="M17.1835 23.949C17.3692 23.3192 17.8143 22.9532 18.3633 22.6362C21.9966 20.5363 25.6238 18.4234 29.245 16.2975C29.8959 15.9151 30.4752 15.8998 31.1322 16.2863C34.824 18.4571 38.5246 20.613 42.2339 22.7538C42.8929 23.1341 43.1876 23.6484 43.1846 24.4101C43.1617 30.3051 43.1462 36.2008 43.1381 42.0972C43.1381 42.957 42.6678 43.2331 41.927 42.8057C39.7521 41.5492 37.5873 40.2815 35.4053 39.0291C34.7998 38.6815 34.5374 38.1866 34.5404 37.4822C34.5556 34.8077 34.5354 32.1321 34.5535 29.4576C34.5586 28.7092 34.272 28.197 33.6301 27.8391C32.7611 27.3566 31.9043 26.8505 31.0515 26.3383C30.4732 25.9907 29.9181 25.9917 29.3358 26.3383C28.4551 26.8686 27.5673 27.3876 26.6724 27.8954C26.1032 28.2205 25.8398 28.6959 25.8418 29.3574C25.8499 32.0329 25.8297 34.7085 25.8549 37.383C25.862 38.1703 25.5754 38.6988 24.8972 39.0843C22.7586 40.3009 20.6361 41.5482 18.5046 42.7802C17.7073 43.2423 17.2572 42.9754 17.2532 42.041C17.2441 39.6384 17.2411 37.2358 17.231 34.8332C17.231 34.5807 17.1967 34.3272 17.1775 34.0746L17.1835 23.949Z" fill="white"/>
</g>
<defs>
<clipPath id="clip0_103_5">
<rect width="26" height="27" fill="white" transform="translate(17.1836 16)"/>
</clipPath>
</defs>
</svg>
