<svg width="61" height="61" viewBox="0 0 61 61" fill="none" xmlns="http://www.w3.org/2000/svg">
<circle cx="30.6389" cy="30.599" r="30.2289" fill="#0BDBDB"/>
<g clip-path="url(#clip0_103_6)">
<path d="M17.0035 41.1468C20.3322 41.4893 23.3362 40.6499 26.0319 38.5837C25.8728 38.5219 25.7318 38.5349 25.5969 38.5212C24.3628 38.3953 23.2662 37.9316 22.3071 37.1301C21.4114 36.3893 20.7392 35.4044 20.3685 34.2895C20.3268 34.166 20.3366 34.1517 20.4617 34.1728C20.8467 34.2378 21.234 34.2795 21.6245 34.2664C22.0579 34.2558 22.489 34.198 22.9104 34.0941C22.9391 34.0869 22.9741 34.0892 23.0008 34.0456C22.8194 34.0024 22.6447 33.9539 22.4719 33.8974C21.5892 33.6108 20.7815 33.1236 20.1094 32.4724C19.2766 31.6731 18.7111 30.7111 18.3958 29.5938C18.2473 29.0539 18.1702 28.4961 18.1667 27.9353C18.1648 27.7926 18.1838 27.7834 18.3076 27.8514C19.0513 28.2579 19.8469 28.4829 20.6845 28.56C20.7425 28.5716 20.8025 28.5675 20.8585 28.5483C20.7675 28.4329 20.6434 28.3665 20.5384 28.279C19.4539 27.377 18.729 26.2391 18.3936 24.8509C18.2501 24.2504 18.1942 23.6317 18.2274 23.0145C18.2732 22.0736 18.524 21.1551 18.9616 20.3259C18.973 20.3044 18.9835 20.2826 18.9934 20.2608C19.0354 20.1802 19.0761 20.1633 19.1423 20.2449C19.464 20.6425 19.8012 21.026 20.154 21.3954C20.7238 21.991 21.3343 22.5444 21.9809 23.0516C23.4922 24.2433 25.1851 25.1727 26.9917 25.8027C28.0642 26.1792 29.1704 26.4468 30.2942 26.6017C30.7149 26.6593 31.1394 26.6905 31.5626 26.7298C31.7017 26.7428 31.7536 26.7526 31.7141 26.5549C31.5962 25.9608 31.565 25.3522 31.6215 24.7488C31.6824 24.022 31.8688 23.312 32.172 22.6516C32.5607 21.7973 33.1321 21.0429 33.844 20.4442C34.5212 19.8664 35.3142 19.4474 36.167 19.2166C36.9213 19.0079 37.7076 18.9484 38.4837 19.0414C39.749 19.1948 40.8612 19.7012 41.8286 20.5441C41.9529 20.6455 42.0674 20.759 42.1703 20.8829C42.234 20.9652 42.31 20.9831 42.4125 20.961C43.3747 20.7545 44.3095 20.4317 45.197 19.9994C45.4983 19.8524 45.7946 19.695 46.082 19.52C46.1116 19.5021 46.1402 19.4758 46.1984 19.4875C45.731 20.9431 44.853 22.0663 43.6183 22.9137C43.9745 22.8801 44.3281 22.8222 44.6767 22.7404C45.4309 22.5667 46.1676 22.3372 46.8756 22.0165C46.89 22.0097 46.9049 22.0039 46.9202 21.9993C46.9456 21.9925 46.9755 21.9694 46.9956 21.9993C47.0105 22.0233 46.9857 22.0445 46.9724 22.0643C46.8336 22.2624 46.6984 22.4633 46.5542 22.6575C46.1398 23.2091 45.6822 23.7253 45.1858 24.2012C44.8359 24.5443 44.463 24.8622 44.0698 25.1523C44.0334 25.1758 44.0041 25.209 43.985 25.2485C43.966 25.2879 43.958 25.332 43.962 25.3757C43.9667 25.7292 43.9667 26.0827 43.9648 26.4365C43.96 27.3614 43.8518 28.2764 43.6896 29.184C43.4156 30.7086 42.9576 32.1925 42.326 33.6018C41.7645 34.8643 41.0666 36.0588 40.2454 37.1629C39.8367 37.7079 39.3985 38.229 38.9327 38.7238C38.0382 39.6782 37.0376 40.5225 35.9513 41.2395C35.1389 41.7752 34.2819 42.2366 33.3902 42.6183C32.4356 43.0252 31.4467 43.3425 30.4358 43.5662C29.6437 43.7435 28.8406 43.8654 28.0323 43.9311C27.4295 43.9812 26.8262 44.0069 26.2222 43.9961C25.4233 43.9865 24.6259 43.9219 23.8355 43.8027C22.963 43.668 22.1015 43.4676 21.2579 43.203C20.1971 42.8685 19.1701 42.4311 18.1908 41.8967C17.843 41.7078 17.5044 41.5029 17.1681 41.2938C17.1111 41.2584 17.0564 41.219 17.0004 41.1813L17.0035 41.1468Z" fill="white"/>
</g>
<defs>
<clipPath id="clip0_103_6">
<rect width="30" height="25" fill="white" transform="translate(17 19)"/>
</clipPath>
</defs>
</svg>
