<svg width="60" height="61" viewBox="0 0 60 61" fill="none" xmlns="http://www.w3.org/2000/svg">
<circle cx="30.218" cy="30.5989" r="29.6641" fill="#764582"/>
<path d="M18.0391 39.2898C17.1953 39.2898 16.4727 38.9929 15.8711 38.3992C15.2773 37.8054 14.9844 37.0867 14.9922 36.2429C14.9844 35.4148 15.2773 34.7078 15.8711 34.1218C16.4727 33.5281 17.1953 33.2312 18.0391 33.2312C18.8359 33.2312 19.5391 33.5281 20.1484 34.1218C20.7656 34.7078 21.0781 35.4148 21.0859 36.2429C21.0781 36.8054 20.9297 37.3171 20.6406 37.7781C20.3594 38.239 19.9883 38.6062 19.5273 38.8796C19.0742 39.1531 18.5781 39.2898 18.0391 39.2898ZM30.6016 28.6843V38.95H24.8711V20.95H30.3203V24.2546H30.5195C30.918 23.1531 31.5977 22.2898 32.5586 21.6648C33.5195 21.032 34.6641 20.7156 35.9922 20.7156C37.2578 20.7156 38.3555 21.0007 39.2852 21.571C40.2227 22.1335 40.9492 22.9226 41.4648 23.9382C41.9883 24.946 42.2461 26.1257 42.2383 27.4773V38.95H36.5078V28.6023C36.5156 27.6023 36.2617 26.821 35.7461 26.2585C35.2383 25.696 34.5313 25.4148 33.625 25.4148C33.0234 25.4148 32.4922 25.5476 32.0313 25.8132C31.5781 26.071 31.2266 26.4421 30.9766 26.9265C30.7344 27.4109 30.6094 27.9968 30.6016 28.6843Z" fill="white"/>
</svg>
