<svg width="60" height="61" viewBox="0 0 60 61" fill="none" xmlns="http://www.w3.org/2000/svg">
<circle cx="29.7976" cy="30.5989" r="29.6641" fill="#0FCC93"/>
<g clip-path="url(#clip0_103_8)">
<path d="M28.0468 23.8064C27.728 23.961 27.4388 24.1526 27.1205 24.2455C26.6717 24.3798 26.1909 24.3634 25.7524 24.1989C25.3138 24.0343 24.9419 23.7308 24.6938 23.335C24.1697 22.5089 24.2497 21.4794 24.922 20.722C25.8359 19.6916 26.7631 18.6724 27.6856 17.6486C27.9558 17.3484 28.2245 17.0468 28.4956 16.7476C29.4486 15.69 30.8999 15.6825 31.8553 16.7386C33.056 18.0664 34.2582 19.3904 35.4432 20.7311C36.5548 21.9892 35.9387 23.9084 34.3087 24.2806C33.674 24.4262 33.0793 24.301 32.5457 23.9174L32.3074 23.7481C32.5019 27.9028 32.6943 32.0077 32.8883 36.151C31.1123 35.6748 29.2414 35.6748 27.4655 36.151C27.6618 32.0129 27.8543 27.907 28.0468 23.8064Z" fill="white"/>
<path d="M30.1757 42.949C28.1673 42.949 26.159 42.9523 24.1506 42.949C23.1796 42.9466 22.4491 42.3799 22.2495 41.4789C22.127 40.924 22.239 40.4038 22.5944 39.958C24.0444 38.1408 25.8969 36.923 28.1893 36.4857C32.0063 35.7602 35.183 36.9258 37.6902 39.8798C38.1982 40.4783 38.2911 41.1682 37.9613 41.8744C37.6316 42.5805 37.036 42.939 36.246 42.9404C34.2219 42.9452 32.196 42.9404 30.1738 42.9404L30.1757 42.949Z" fill="white"/>
<path d="M37.2063 33.1629C36.3438 34.4078 35.7387 35.7375 35.2675 37.127C34.7786 36.9027 34.3336 36.647 33.8557 36.4943C33.4511 36.3644 33.3496 36.1624 33.3377 35.755C33.2901 34.1123 33.1948 32.471 33.1128 30.8293C33.1033 30.6367 33.1367 30.4816 33.2782 30.3375C33.7775 29.8291 34.265 29.3098 34.7605 28.7981C34.8139 28.7436 34.8939 28.7152 34.9835 28.6606C34.8734 28.5757 34.8324 28.5416 34.7886 28.5117C33.91 27.9104 33.5736 26.888 33.9391 25.93C34.3045 24.9721 35.2517 24.3992 36.2957 24.5619C37.9967 24.8275 39.6959 25.1082 41.3878 25.4264C42.7906 25.6901 43.5201 27.0113 43.0317 28.3467C42.4599 29.9045 41.8772 31.4571 41.2906 33.0088C40.9495 33.9098 40.2872 34.4315 39.3185 34.4723C38.4022 34.5126 37.7218 34.0853 37.2858 33.2791C37.2715 33.2525 37.2501 33.2279 37.2063 33.1629Z" fill="white"/>
<path d="M25.086 37.115C24.6143 35.7265 24.011 34.4025 23.1558 33.17C23.1119 33.2321 23.0791 33.2714 23.0543 33.3155C22.6221 34.0909 21.9546 34.4987 21.0707 34.4741C20.1549 34.4489 19.4683 33.9956 19.13 33.1463C18.5673 31.7293 18.0527 30.2938 17.5181 28.8664C17.4542 28.6961 17.3885 28.5264 17.3275 28.3552C16.8348 26.9325 17.632 25.6288 19.1224 25.3875C20.7281 25.1269 22.3323 24.857 23.9348 24.5775C25.0031 24.393 26.0061 24.9156 26.3973 25.8797C26.7961 26.8632 26.4635 27.9089 25.5567 28.5216C25.5181 28.5472 25.4819 28.5757 25.4271 28.6165L25.5768 28.7744C26.0899 29.3131 26.6083 29.8466 27.111 30.3948C27.194 30.495 27.2381 30.6216 27.2354 30.7514C27.161 32.5279 27.0724 34.3038 26.9971 36.0803C26.9895 36.2458 26.9352 36.3236 26.7765 36.3881C26.2186 36.6114 25.6716 36.8599 25.086 37.115Z" fill="white"/>
</g>
<defs>
<clipPath id="clip0_103_8">
<rect width="26" height="27" fill="white" transform="translate(17.1836 15.95)"/>
</clipPath>
</defs>
</svg>
